<mxfile host="app.diagrams.net" modified="2022-05-13T12:57:27.615Z" agent="5.0 (Windows NT 10.0; Win64; x64) AppleWebKit/537.36 (KHTML, like Gecko) Chrome/101.0.4951.54 Safari/537.36" etag="hqhQPtf8XdQIXaP_fcHt" version="18.0.3" type="github">
  <diagram id="C5RBs43oDa-KdzZeNtuy" name="Page-1">
    <mxGraphModel dx="2062" dy="1146" grid="1" gridSize="10" guides="1" tooltips="1" connect="1" arrows="1" fold="1" page="1" pageScale="1" pageWidth="1169" pageHeight="1654" math="0" shadow="0">
      <root>
        <mxCell id="WIyWlLk6GJQsqaUBKTNV-0" />
        <mxCell id="WIyWlLk6GJQsqaUBKTNV-1" parent="WIyWlLk6GJQsqaUBKTNV-0" />
        <mxCell id="zkfFHV4jXpPFQw0GAbJ--17" value="Shipment - Customer" style="swimlane;fontStyle=0;align=center;verticalAlign=top;childLayout=stackLayout;horizontal=1;startSize=26;horizontalStack=0;resizeParent=1;resizeLast=0;collapsible=1;marginBottom=0;rounded=0;shadow=0;strokeWidth=1;" parent="WIyWlLk6GJQsqaUBKTNV-1" vertex="1">
          <mxGeometry x="60" y="80" width="160" height="222" as="geometry">
            <mxRectangle x="550" y="140" width="160" height="26" as="alternateBounds" />
          </mxGeometry>
        </mxCell>
        <mxCell id="zkfFHV4jXpPFQw0GAbJ--18" value="Id" style="text;align=left;verticalAlign=top;spacingLeft=4;spacingRight=4;overflow=hidden;rotatable=0;points=[[0,0.5],[1,0.5]];portConstraint=eastwest;" parent="zkfFHV4jXpPFQw0GAbJ--17" vertex="1">
          <mxGeometry y="26" width="160" height="26" as="geometry" />
        </mxCell>
        <mxCell id="2roUpudtLbYZAX120ol8-20" value="" style="line;html=1;strokeWidth=1;align=left;verticalAlign=middle;spacingTop=-1;spacingLeft=3;spacingRight=3;rotatable=0;labelPosition=right;points=[];portConstraint=eastwest;" vertex="1" parent="zkfFHV4jXpPFQw0GAbJ--17">
          <mxGeometry y="52" width="160" height="8" as="geometry" />
        </mxCell>
        <mxCell id="zkfFHV4jXpPFQw0GAbJ--19" value="Barcode" style="text;align=left;verticalAlign=top;spacingLeft=4;spacingRight=4;overflow=hidden;rotatable=0;points=[[0,0.5],[1,0.5]];portConstraint=eastwest;rounded=0;shadow=0;html=0;" parent="zkfFHV4jXpPFQw0GAbJ--17" vertex="1">
          <mxGeometry y="60" width="160" height="26" as="geometry" />
        </mxCell>
        <mxCell id="2roUpudtLbYZAX120ol8-19" value="" style="line;html=1;strokeWidth=1;align=left;verticalAlign=middle;spacingTop=-1;spacingLeft=3;spacingRight=3;rotatable=0;labelPosition=right;points=[];portConstraint=eastwest;" vertex="1" parent="zkfFHV4jXpPFQw0GAbJ--17">
          <mxGeometry y="86" width="160" height="8" as="geometry" />
        </mxCell>
        <mxCell id="zkfFHV4jXpPFQw0GAbJ--20" value="Shipment Type" style="text;align=left;verticalAlign=top;spacingLeft=4;spacingRight=4;overflow=hidden;rotatable=0;points=[[0,0.5],[1,0.5]];portConstraint=eastwest;rounded=0;shadow=0;html=0;" parent="zkfFHV4jXpPFQw0GAbJ--17" vertex="1">
          <mxGeometry y="94" width="160" height="26" as="geometry" />
        </mxCell>
        <mxCell id="2roUpudtLbYZAX120ol8-18" value="" style="line;html=1;strokeWidth=1;align=left;verticalAlign=middle;spacingTop=-1;spacingLeft=3;spacingRight=3;rotatable=0;labelPosition=right;points=[];portConstraint=eastwest;" vertex="1" parent="zkfFHV4jXpPFQw0GAbJ--17">
          <mxGeometry y="120" width="160" height="8" as="geometry" />
        </mxCell>
        <mxCell id="zkfFHV4jXpPFQw0GAbJ--21" value="Status" style="text;align=left;verticalAlign=top;spacingLeft=4;spacingRight=4;overflow=hidden;rotatable=0;points=[[0,0.5],[1,0.5]];portConstraint=eastwest;rounded=0;shadow=0;html=0;" parent="zkfFHV4jXpPFQw0GAbJ--17" vertex="1">
          <mxGeometry y="128" width="160" height="26" as="geometry" />
        </mxCell>
        <mxCell id="2roUpudtLbYZAX120ol8-17" value="" style="line;html=1;strokeWidth=1;align=left;verticalAlign=middle;spacingTop=-1;spacingLeft=3;spacingRight=3;rotatable=0;labelPosition=right;points=[];portConstraint=eastwest;" vertex="1" parent="zkfFHV4jXpPFQw0GAbJ--17">
          <mxGeometry y="154" width="160" height="8" as="geometry" />
        </mxCell>
        <mxCell id="zkfFHV4jXpPFQw0GAbJ--22" value="Delivery Point" style="text;align=left;verticalAlign=top;spacingLeft=4;spacingRight=4;overflow=hidden;rotatable=0;points=[[0,0.5],[1,0.5]];portConstraint=eastwest;rounded=0;shadow=0;html=0;" parent="zkfFHV4jXpPFQw0GAbJ--17" vertex="1">
          <mxGeometry y="162" width="160" height="26" as="geometry" />
        </mxCell>
        <mxCell id="zkfFHV4jXpPFQw0GAbJ--23" value="" style="line;html=1;strokeWidth=1;align=left;verticalAlign=middle;spacingTop=-1;spacingLeft=3;spacingRight=3;rotatable=0;labelPosition=right;points=[];portConstraint=eastwest;" parent="zkfFHV4jXpPFQw0GAbJ--17" vertex="1">
          <mxGeometry y="188" width="160" height="8" as="geometry" />
        </mxCell>
        <mxCell id="2roUpudtLbYZAX120ol8-149" value="Capacity" style="text;align=left;verticalAlign=top;spacingLeft=4;spacingRight=4;overflow=hidden;rotatable=0;points=[[0,0.5],[1,0.5]];portConstraint=eastwest;rounded=0;shadow=0;html=0;" vertex="1" parent="zkfFHV4jXpPFQw0GAbJ--17">
          <mxGeometry y="196" width="160" height="26" as="geometry" />
        </mxCell>
        <mxCell id="2roUpudtLbYZAX120ol8-23" style="edgeStyle=orthogonalEdgeStyle;rounded=0;orthogonalLoop=1;jettySize=auto;html=1;exitX=0.5;exitY=1;exitDx=0;exitDy=0;strokeColor=none;" edge="1" parent="WIyWlLk6GJQsqaUBKTNV-1">
          <mxGeometry relative="1" as="geometry">
            <mxPoint x="840" y="360" as="targetPoint" />
            <mxPoint x="1110" y="310" as="sourcePoint" />
          </mxGeometry>
        </mxCell>
        <mxCell id="2roUpudtLbYZAX120ol8-72" value="Transactions" style="swimlane;fontStyle=0;align=center;verticalAlign=top;childLayout=stackLayout;horizontal=1;startSize=26;horizontalStack=0;resizeParent=1;resizeLast=0;collapsible=1;marginBottom=0;rounded=0;shadow=0;strokeWidth=1;" vertex="1" parent="WIyWlLk6GJQsqaUBKTNV-1">
          <mxGeometry x="70" y="430" width="160" height="130" as="geometry">
            <mxRectangle x="550" y="140" width="160" height="26" as="alternateBounds" />
          </mxGeometry>
        </mxCell>
        <mxCell id="2roUpudtLbYZAX120ol8-73" value="Id" style="text;align=left;verticalAlign=top;spacingLeft=4;spacingRight=4;overflow=hidden;rotatable=0;points=[[0,0.5],[1,0.5]];portConstraint=eastwest;" vertex="1" parent="2roUpudtLbYZAX120ol8-72">
          <mxGeometry y="26" width="160" height="26" as="geometry" />
        </mxCell>
        <mxCell id="2roUpudtLbYZAX120ol8-74" value="" style="line;html=1;strokeWidth=1;align=left;verticalAlign=middle;spacingTop=-1;spacingLeft=3;spacingRight=3;rotatable=0;labelPosition=right;points=[];portConstraint=eastwest;" vertex="1" parent="2roUpudtLbYZAX120ol8-72">
          <mxGeometry y="52" width="160" height="8" as="geometry" />
        </mxCell>
        <mxCell id="2roUpudtLbYZAX120ol8-75" value="Vehicle" style="text;align=left;verticalAlign=top;spacingLeft=4;spacingRight=4;overflow=hidden;rotatable=0;points=[[0,0.5],[1,0.5]];portConstraint=eastwest;rounded=0;shadow=0;html=0;" vertex="1" parent="2roUpudtLbYZAX120ol8-72">
          <mxGeometry y="60" width="160" height="26" as="geometry" />
        </mxCell>
        <mxCell id="2roUpudtLbYZAX120ol8-76" value="" style="line;html=1;strokeWidth=1;align=left;verticalAlign=middle;spacingTop=-1;spacingLeft=3;spacingRight=3;rotatable=0;labelPosition=right;points=[];portConstraint=eastwest;" vertex="1" parent="2roUpudtLbYZAX120ol8-72">
          <mxGeometry y="86" width="160" height="8" as="geometry" />
        </mxCell>
        <mxCell id="2roUpudtLbYZAX120ol8-77" value="Shipment" style="text;align=left;verticalAlign=top;spacingLeft=4;spacingRight=4;overflow=hidden;rotatable=0;points=[[0,0.5],[1,0.5]];portConstraint=eastwest;rounded=0;shadow=0;html=0;" vertex="1" parent="2roUpudtLbYZAX120ol8-72">
          <mxGeometry y="94" width="160" height="26" as="geometry" />
        </mxCell>
        <mxCell id="2roUpudtLbYZAX120ol8-87" value="Shipment Type" style="swimlane;childLayout=stackLayout;resizeParent=1;resizeParentMax=0;startSize=20;fillColor=#fff2cc;strokeColor=#d6b656;" vertex="1" parent="WIyWlLk6GJQsqaUBKTNV-1">
          <mxGeometry x="790" y="20" width="320" height="110" as="geometry" />
        </mxCell>
        <mxCell id="2roUpudtLbYZAX120ol8-88" value="Id" style="swimlane;startSize=20;fillColor=#d5e8d4;strokeColor=#82b366;" vertex="1" parent="2roUpudtLbYZAX120ol8-87">
          <mxGeometry y="20" width="170" height="90" as="geometry" />
        </mxCell>
        <mxCell id="2roUpudtLbYZAX120ol8-91" value="1" style="text;align=left;verticalAlign=top;spacingLeft=4;spacingRight=4;overflow=hidden;rotatable=0;points=[[0,0.5],[1,0.5]];portConstraint=eastwest;" vertex="1" parent="2roUpudtLbYZAX120ol8-88">
          <mxGeometry x="75" y="27" width="20" height="26" as="geometry" />
        </mxCell>
        <mxCell id="2roUpudtLbYZAX120ol8-97" value="2" style="text;align=left;verticalAlign=top;spacingLeft=4;spacingRight=4;overflow=hidden;rotatable=0;points=[[0,0.5],[1,0.5]];portConstraint=eastwest;" vertex="1" parent="2roUpudtLbYZAX120ol8-88">
          <mxGeometry x="75" y="57" width="20" height="26" as="geometry" />
        </mxCell>
        <mxCell id="2roUpudtLbYZAX120ol8-89" value="Description" style="swimlane;startSize=20;fillColor=#d5e8d4;strokeColor=#82b366;" vertex="1" parent="2roUpudtLbYZAX120ol8-87">
          <mxGeometry x="170" y="20" width="150" height="90" as="geometry" />
        </mxCell>
        <mxCell id="2roUpudtLbYZAX120ol8-68" value="Bag" style="text;align=left;verticalAlign=top;spacingLeft=4;spacingRight=4;overflow=hidden;rotatable=0;points=[[0,0.5],[1,0.5]];portConstraint=eastwest;" vertex="1" parent="2roUpudtLbYZAX120ol8-89">
          <mxGeometry x="40" y="27" width="50" height="26" as="geometry" />
        </mxCell>
        <mxCell id="2roUpudtLbYZAX120ol8-98" value="Package&#xa;" style="text;align=left;verticalAlign=top;spacingLeft=4;spacingRight=4;overflow=hidden;rotatable=0;points=[[0,0.5],[1,0.5]];portConstraint=eastwest;" vertex="1" parent="2roUpudtLbYZAX120ol8-89">
          <mxGeometry x="40" y="53" width="60" height="26" as="geometry" />
        </mxCell>
        <mxCell id="2roUpudtLbYZAX120ol8-99" value="Shipment Status" style="swimlane;childLayout=stackLayout;resizeParent=1;resizeParentMax=0;startSize=20;fillColor=#fff2cc;strokeColor=#d6b656;" vertex="1" parent="WIyWlLk6GJQsqaUBKTNV-1">
          <mxGeometry x="790" y="140" width="320" height="140" as="geometry" />
        </mxCell>
        <mxCell id="2roUpudtLbYZAX120ol8-100" value="Id" style="swimlane;startSize=20;fillColor=#d5e8d4;strokeColor=#82b366;" vertex="1" parent="2roUpudtLbYZAX120ol8-99">
          <mxGeometry y="20" width="170" height="120" as="geometry" />
        </mxCell>
        <mxCell id="2roUpudtLbYZAX120ol8-101" value="1" style="text;align=left;verticalAlign=top;spacingLeft=4;spacingRight=4;overflow=hidden;rotatable=0;points=[[0,0.5],[1,0.5]];portConstraint=eastwest;" vertex="1" parent="2roUpudtLbYZAX120ol8-100">
          <mxGeometry x="75" y="27" width="20" height="26" as="geometry" />
        </mxCell>
        <mxCell id="2roUpudtLbYZAX120ol8-102" value="2" style="text;align=left;verticalAlign=top;spacingLeft=4;spacingRight=4;overflow=hidden;rotatable=0;points=[[0,0.5],[1,0.5]];portConstraint=eastwest;" vertex="1" parent="2roUpudtLbYZAX120ol8-100">
          <mxGeometry x="75" y="47" width="20" height="26" as="geometry" />
        </mxCell>
        <mxCell id="2roUpudtLbYZAX120ol8-106" value="3" style="text;align=left;verticalAlign=top;spacingLeft=4;spacingRight=4;overflow=hidden;rotatable=0;points=[[0,0.5],[1,0.5]];portConstraint=eastwest;" vertex="1" parent="2roUpudtLbYZAX120ol8-100">
          <mxGeometry x="75" y="70" width="20" height="26" as="geometry" />
        </mxCell>
        <mxCell id="2roUpudtLbYZAX120ol8-107" value="4" style="text;align=left;verticalAlign=top;spacingLeft=4;spacingRight=4;overflow=hidden;rotatable=0;points=[[0,0.5],[1,0.5]];portConstraint=eastwest;" vertex="1" parent="2roUpudtLbYZAX120ol8-100">
          <mxGeometry x="75" y="90" width="20" height="26" as="geometry" />
        </mxCell>
        <mxCell id="2roUpudtLbYZAX120ol8-103" value="Description" style="swimlane;startSize=20;fillColor=#d5e8d4;strokeColor=#82b366;" vertex="1" parent="2roUpudtLbYZAX120ol8-99">
          <mxGeometry x="170" y="20" width="150" height="120" as="geometry">
            <mxRectangle x="170" y="20" width="30" height="120" as="alternateBounds" />
          </mxGeometry>
        </mxCell>
        <mxCell id="2roUpudtLbYZAX120ol8-104" value="Created" style="text;align=left;verticalAlign=top;spacingLeft=4;spacingRight=4;overflow=hidden;rotatable=0;points=[[0,0.5],[1,0.5]];portConstraint=eastwest;" vertex="1" parent="2roUpudtLbYZAX120ol8-103">
          <mxGeometry x="40" y="27" width="70" height="26" as="geometry" />
        </mxCell>
        <mxCell id="2roUpudtLbYZAX120ol8-105" value="Loaded into Bag" style="text;align=left;verticalAlign=top;spacingLeft=4;spacingRight=4;overflow=hidden;rotatable=0;points=[[0,0.5],[1,0.5]];portConstraint=eastwest;" vertex="1" parent="2roUpudtLbYZAX120ol8-103">
          <mxGeometry x="15" y="47" width="120" height="26" as="geometry" />
        </mxCell>
        <mxCell id="2roUpudtLbYZAX120ol8-108" value="Loaded" style="text;align=left;verticalAlign=top;spacingLeft=4;spacingRight=4;overflow=hidden;rotatable=0;points=[[0,0.5],[1,0.5]];portConstraint=eastwest;" vertex="1" parent="2roUpudtLbYZAX120ol8-103">
          <mxGeometry x="40" y="68" width="120" height="26" as="geometry" />
        </mxCell>
        <mxCell id="2roUpudtLbYZAX120ol8-109" value="Unloaded" style="text;align=left;verticalAlign=top;spacingLeft=4;spacingRight=4;overflow=hidden;rotatable=0;points=[[0,0.5],[1,0.5]];portConstraint=eastwest;" vertex="1" parent="2roUpudtLbYZAX120ol8-103">
          <mxGeometry x="40" y="90" width="120" height="26" as="geometry" />
        </mxCell>
        <mxCell id="2roUpudtLbYZAX120ol8-123" value="Saved Vehicle" style="swimlane;childLayout=stackLayout;resizeParent=1;resizeParentMax=0;startSize=20;fillColor=#fff2cc;strokeColor=#d6b656;" vertex="1" parent="WIyWlLk6GJQsqaUBKTNV-1">
          <mxGeometry x="790" y="420" width="320" height="140" as="geometry" />
        </mxCell>
        <mxCell id="2roUpudtLbYZAX120ol8-124" value="Id" style="swimlane;startSize=20;fillColor=#d5e8d4;strokeColor=#82b366;" vertex="1" parent="2roUpudtLbYZAX120ol8-123">
          <mxGeometry y="20" width="170" height="120" as="geometry" />
        </mxCell>
        <mxCell id="2roUpudtLbYZAX120ol8-125" value="1" style="text;align=left;verticalAlign=top;spacingLeft=4;spacingRight=4;overflow=hidden;rotatable=0;points=[[0,0.5],[1,0.5]];portConstraint=eastwest;" vertex="1" parent="2roUpudtLbYZAX120ol8-124">
          <mxGeometry x="75" y="27" width="20" height="26" as="geometry" />
        </mxCell>
        <mxCell id="2roUpudtLbYZAX120ol8-126" value="2" style="text;align=left;verticalAlign=top;spacingLeft=4;spacingRight=4;overflow=hidden;rotatable=0;points=[[0,0.5],[1,0.5]];portConstraint=eastwest;" vertex="1" parent="2roUpudtLbYZAX120ol8-124">
          <mxGeometry x="75" y="47" width="20" height="26" as="geometry" />
        </mxCell>
        <mxCell id="2roUpudtLbYZAX120ol8-127" value="3" style="text;align=left;verticalAlign=top;spacingLeft=4;spacingRight=4;overflow=hidden;rotatable=0;points=[[0,0.5],[1,0.5]];portConstraint=eastwest;" vertex="1" parent="2roUpudtLbYZAX120ol8-124">
          <mxGeometry x="75" y="70" width="20" height="26" as="geometry" />
        </mxCell>
        <mxCell id="2roUpudtLbYZAX120ol8-128" value="4" style="text;align=left;verticalAlign=top;spacingLeft=4;spacingRight=4;overflow=hidden;rotatable=0;points=[[0,0.5],[1,0.5]];portConstraint=eastwest;" vertex="1" parent="2roUpudtLbYZAX120ol8-124">
          <mxGeometry x="75" y="90" width="20" height="26" as="geometry" />
        </mxCell>
        <mxCell id="2roUpudtLbYZAX120ol8-129" value="Description" style="swimlane;startSize=20;fillColor=#d5e8d4;strokeColor=#82b366;" vertex="1" parent="2roUpudtLbYZAX120ol8-123">
          <mxGeometry x="170" y="20" width="150" height="120" as="geometry" />
        </mxCell>
        <mxCell id="2roUpudtLbYZAX120ol8-130" value="34 AA 34" style="text;align=left;verticalAlign=top;spacingLeft=4;spacingRight=4;overflow=hidden;rotatable=0;points=[[0,0.5],[1,0.5]];portConstraint=eastwest;" vertex="1" parent="2roUpudtLbYZAX120ol8-129">
          <mxGeometry x="40" y="27" width="70" height="26" as="geometry" />
        </mxCell>
        <mxCell id="2roUpudtLbYZAX120ol8-131" value="34 BB 34" style="text;align=left;verticalAlign=top;spacingLeft=4;spacingRight=4;overflow=hidden;rotatable=0;points=[[0,0.5],[1,0.5]];portConstraint=eastwest;" vertex="1" parent="2roUpudtLbYZAX120ol8-129">
          <mxGeometry x="40" y="47" width="120" height="26" as="geometry" />
        </mxCell>
        <mxCell id="2roUpudtLbYZAX120ol8-132" value="34 CC 34" style="text;align=left;verticalAlign=top;spacingLeft=4;spacingRight=4;overflow=hidden;rotatable=0;points=[[0,0.5],[1,0.5]];portConstraint=eastwest;" vertex="1" parent="2roUpudtLbYZAX120ol8-129">
          <mxGeometry x="40" y="68" width="120" height="26" as="geometry" />
        </mxCell>
        <mxCell id="2roUpudtLbYZAX120ol8-133" value="34 DD 34" style="text;align=left;verticalAlign=top;spacingLeft=4;spacingRight=4;overflow=hidden;rotatable=0;points=[[0,0.5],[1,0.5]];portConstraint=eastwest;" vertex="1" parent="2roUpudtLbYZAX120ol8-129">
          <mxGeometry x="40" y="90" width="120" height="26" as="geometry" />
        </mxCell>
        <mxCell id="2roUpudtLbYZAX120ol8-134" value="Delivery Point" style="swimlane;childLayout=stackLayout;resizeParent=1;resizeParentMax=0;startSize=20;fillColor=#fff2cc;strokeColor=#d6b656;" vertex="1" parent="WIyWlLk6GJQsqaUBKTNV-1">
          <mxGeometry x="790" y="290" width="320" height="120" as="geometry" />
        </mxCell>
        <mxCell id="2roUpudtLbYZAX120ol8-135" value="Id" style="swimlane;startSize=20;fillColor=#d5e8d4;strokeColor=#82b366;" vertex="1" parent="2roUpudtLbYZAX120ol8-134">
          <mxGeometry y="20" width="170" height="100" as="geometry" />
        </mxCell>
        <mxCell id="2roUpudtLbYZAX120ol8-136" value="1" style="text;align=left;verticalAlign=top;spacingLeft=4;spacingRight=4;overflow=hidden;rotatable=0;points=[[0,0.5],[1,0.5]];portConstraint=eastwest;" vertex="1" parent="2roUpudtLbYZAX120ol8-135">
          <mxGeometry x="75" y="27" width="20" height="26" as="geometry" />
        </mxCell>
        <mxCell id="2roUpudtLbYZAX120ol8-137" value="2" style="text;align=left;verticalAlign=top;spacingLeft=4;spacingRight=4;overflow=hidden;rotatable=0;points=[[0,0.5],[1,0.5]];portConstraint=eastwest;" vertex="1" parent="2roUpudtLbYZAX120ol8-135">
          <mxGeometry x="75" y="47" width="20" height="26" as="geometry" />
        </mxCell>
        <mxCell id="2roUpudtLbYZAX120ol8-138" value="3" style="text;align=left;verticalAlign=top;spacingLeft=4;spacingRight=4;overflow=hidden;rotatable=0;points=[[0,0.5],[1,0.5]];portConstraint=eastwest;" vertex="1" parent="2roUpudtLbYZAX120ol8-135">
          <mxGeometry x="75" y="70" width="20" height="26" as="geometry" />
        </mxCell>
        <mxCell id="2roUpudtLbYZAX120ol8-140" value="Description" style="swimlane;startSize=20;fillColor=#d5e8d4;strokeColor=#82b366;" vertex="1" parent="2roUpudtLbYZAX120ol8-134">
          <mxGeometry x="170" y="20" width="150" height="100" as="geometry" />
        </mxCell>
        <mxCell id="2roUpudtLbYZAX120ol8-141" value="Branch" style="text;align=left;verticalAlign=top;spacingLeft=4;spacingRight=4;overflow=hidden;rotatable=0;points=[[0,0.5],[1,0.5]];portConstraint=eastwest;" vertex="1" parent="2roUpudtLbYZAX120ol8-140">
          <mxGeometry x="40" y="27" width="70" height="26" as="geometry" />
        </mxCell>
        <mxCell id="2roUpudtLbYZAX120ol8-142" value="Distribution" style="text;align=left;verticalAlign=top;spacingLeft=4;spacingRight=4;overflow=hidden;rotatable=0;points=[[0,0.5],[1,0.5]];portConstraint=eastwest;" vertex="1" parent="2roUpudtLbYZAX120ol8-140">
          <mxGeometry x="30" y="47" width="120" height="26" as="geometry" />
        </mxCell>
        <mxCell id="2roUpudtLbYZAX120ol8-143" value="Transfer Center" style="text;align=left;verticalAlign=top;spacingLeft=4;spacingRight=4;overflow=hidden;rotatable=0;points=[[0,0.5],[1,0.5]];portConstraint=eastwest;" vertex="1" parent="2roUpudtLbYZAX120ol8-140">
          <mxGeometry x="20" y="68" width="120" height="26" as="geometry" />
        </mxCell>
        <mxCell id="2roUpudtLbYZAX120ol8-146" style="edgeStyle=orthogonalEdgeStyle;rounded=0;orthogonalLoop=1;jettySize=auto;html=1;exitX=0;exitY=0.5;exitDx=0;exitDy=0;entryX=1;entryY=0.5;entryDx=0;entryDy=0;endArrow=classic;endFill=1;" edge="1" parent="WIyWlLk6GJQsqaUBKTNV-1" source="2roUpudtLbYZAX120ol8-88" target="zkfFHV4jXpPFQw0GAbJ--20">
          <mxGeometry relative="1" as="geometry" />
        </mxCell>
        <mxCell id="2roUpudtLbYZAX120ol8-150" style="edgeStyle=orthogonalEdgeStyle;rounded=0;orthogonalLoop=1;jettySize=auto;html=1;exitX=0;exitY=0.5;exitDx=0;exitDy=0;entryX=1;entryY=0.5;entryDx=0;entryDy=0;endArrow=classic;endFill=1;" edge="1" parent="WIyWlLk6GJQsqaUBKTNV-1" source="2roUpudtLbYZAX120ol8-135" target="zkfFHV4jXpPFQw0GAbJ--22">
          <mxGeometry relative="1" as="geometry" />
        </mxCell>
        <mxCell id="2roUpudtLbYZAX120ol8-171" style="edgeStyle=orthogonalEdgeStyle;rounded=0;orthogonalLoop=1;jettySize=auto;html=1;exitX=0;exitY=0.5;exitDx=0;exitDy=0;entryX=1;entryY=0.5;entryDx=0;entryDy=0;endArrow=classic;endFill=1;" edge="1" parent="WIyWlLk6GJQsqaUBKTNV-1" source="2roUpudtLbYZAX120ol8-100" target="zkfFHV4jXpPFQw0GAbJ--21">
          <mxGeometry relative="1" as="geometry">
            <Array as="points">
              <mxPoint x="790" y="221" />
            </Array>
          </mxGeometry>
        </mxCell>
        <mxCell id="2roUpudtLbYZAX120ol8-174" style="edgeStyle=orthogonalEdgeStyle;rounded=0;orthogonalLoop=1;jettySize=auto;html=1;exitX=0;exitY=0.5;exitDx=0;exitDy=0;entryX=0;entryY=0.5;entryDx=0;entryDy=0;endArrow=classic;endFill=1;" edge="1" parent="WIyWlLk6GJQsqaUBKTNV-1" source="zkfFHV4jXpPFQw0GAbJ--19" target="2roUpudtLbYZAX120ol8-77">
          <mxGeometry relative="1" as="geometry" />
        </mxCell>
        <mxCell id="2roUpudtLbYZAX120ol8-178" style="edgeStyle=orthogonalEdgeStyle;rounded=0;orthogonalLoop=1;jettySize=auto;html=1;exitX=0;exitY=0.5;exitDx=0;exitDy=0;entryX=1;entryY=0.5;entryDx=0;entryDy=0;endArrow=classic;endFill=1;" edge="1" parent="WIyWlLk6GJQsqaUBKTNV-1" source="2roUpudtLbYZAX120ol8-124" target="2roUpudtLbYZAX120ol8-75">
          <mxGeometry relative="1" as="geometry" />
        </mxCell>
      </root>
    </mxGraphModel>
  </diagram>
</mxfile>
